<svg width="29" height="104" viewBox="0 0 29 104" fill="none" xmlns="http://www.w3.org/2000/svg">
<path id="Vector" d="M6.89546 44.9665L6.76708 44.9137C6.48072 48.1301 6.67547 51.5212 6.21734 54.4996L6.40782 54.4957C6.68616 59.2919 6.72258 64.0026 7.81746 68.6623C7.74086 69.1311 7.27194 68.9523 7.14734 69.3731C7.20017 69.5339 7.25858 69.9108 7.4882 69.8637C7.54397 69.52 7.7859 69.6553 7.85199 69.5283C7.94363 70.06 8.35485 70.6751 8.17901 71.2079L7.79978 70.884C7.7162 71.096 7.86303 71.3643 7.91382 71.5258C8.04815 71.4198 8.42182 71.5816 8.46221 71.4222C7.99037 72.5809 8.97888 72.1035 8.91209 72.9951C8.33957 73.3202 8.10143 74.5021 7.86706 75.3205L8.14295 75.6302C7.98651 75.1565 8.59133 75.5035 8.37738 74.9265C8.70806 75.3625 8.59437 75.894 8.84062 76.3251C8.6582 76.2845 8.46442 76.3701 8.45582 76.5788C8.63234 76.8377 8.94637 76.7629 9.08173 77.0765L9.16991 76.6949C9.46792 76.835 9.22565 77.1178 9.25353 77.3306C9.5291 77.3106 9.73078 77.7755 9.98461 77.5933C9.77298 78.147 10.0365 78.2256 9.98967 78.7633C9.54285 78.3799 9.70415 79.0055 9.47451 79.0283L9.36932 78.4506C9.82722 79.1542 9.32045 78.1858 9.77294 78.093C9.44576 77.8009 9.24062 78.8376 9.09148 78.2079C9.13742 79.0097 9.39281 79.0897 9.31588 79.963C9.22698 79.4853 9.06884 80.1533 8.8478 79.9606C9.04756 80.5383 9.05116 80.0465 9.39301 80.1184C9.49798 80.4326 9.78306 80.4517 9.57536 80.8582C9.89254 81.309 9.86632 80.6579 10.1353 80.8432C10.3607 80.5461 9.2487 79.5934 10.2415 79.3781C10.1541 79.1167 10.3969 78.6711 10.2385 78.3102C10.4853 78.5894 10.9686 78.9323 10.9028 79.4091L10.3802 79.6289C10.4818 79.937 10.1462 80.1373 10.2761 80.34C10.3847 80.1638 10.6867 80.2891 10.7356 80.5498C10.6349 80.5099 10.6152 80.4052 10.5329 80.4673C10.6704 80.9341 10.3159 81.148 10.4495 81.7216C10.1168 81.339 9.94388 81.301 9.54912 80.971C9.22241 81.2301 9.60817 81.2919 9.65771 81.5588C9.69346 81.5014 9.68461 81.4453 9.7853 81.4893L9.71399 81.8243C10.1136 82.313 10.217 81.539 10.5915 81.9189C11.0348 82.103 10.6061 82.4195 10.8846 82.5859C10.844 82.5831 10.8022 82.5804 10.7718 82.5783C10.8009 82.629 10.8259 82.6635 10.8495 82.6872C10.8408 82.6892 10.8327 82.6892 10.8225 82.6939C10.8964 83.0081 11.0615 83.3081 10.8252 83.5105C10.9623 83.487 10.9011 83.7821 10.8587 83.9152C10.8204 84.1266 10.6729 84.6662 11.2133 84.7112C11.214 84.7038 11.2079 84.699 11.2079 84.6923C11.4277 85.0295 11.7062 85.2405 11.8114 85.096L12.2023 85.6178L12.5196 85.3885C12.6822 85.9533 12.4546 85.9997 12.2747 86.5366C12.6654 86.8084 12.8234 87.5469 12.8203 87.8623C12.8561 87.8954 12.8926 87.9563 12.9312 88.0678L12.6778 87.925C12.9152 88.3177 12.7086 88.3648 12.8547 88.6297C12.7925 88.5918 12.7682 88.5945 12.9048 88.7135C12.8865 88.6831 12.8703 88.656 12.8547 88.6297C12.8844 88.6486 12.9196 88.677 12.9541 88.7129L12.9081 88.7169C12.9399 88.7568 12.9737 88.7986 13.015 88.8507C13.044 88.8176 13.0054 88.7615 12.9541 88.7115L13.0945 88.6981C13.633 88.8208 13.164 89.3007 13.4817 89.5739C13.4756 89.534 13.4688 89.4665 13.4458 89.4327C13.6438 89.5754 14.274 89.5806 14.0277 89.8242C14.0898 89.8473 14.069 89.9479 14.0333 90.0553L14.1624 90.1668C14.1144 90.1175 14.0725 90.0837 14.0339 90.0573C13.9861 90.1998 13.9139 90.3517 13.9923 90.322L14.3257 90.7783C14.4237 90.8439 14.4556 90.9932 14.4732 91.1188L14.6617 91.1183C14.749 91.3042 14.832 91.2563 14.8576 91.2131C15.7077 91.5231 15.197 92.2921 16.0113 92.6852C15.8629 92.9526 15.5932 92.749 15.4588 92.805C15.3489 93.0163 15.4283 93.4899 15.4232 93.7574C15.9035 93.8598 16.7775 94.5381 17.1237 94.1C17.5172 94.5921 16.7386 94.1226 16.7666 94.484L16.8255 94.532C16.6491 94.388 16.3998 94.3493 16.1586 94.3619C15.8919 94.4812 16.1457 94.9914 16.3126 95.0868L16.5825 94.7574C16.7991 95.3183 16.2218 95.567 16.0966 96.1046C16.5008 96.4008 16.649 95.9632 17.0063 95.8345L17.2046 96.2974L17.455 96.1186C17.5708 96.4273 17.3805 96.6569 17.732 96.949C17.7776 96.5221 18.3524 97.3142 18.4046 96.7293C18.6364 96.8599 18.2017 97.2702 18.6076 97.124C18.4478 97.4542 18.342 97.0488 18.1832 97.0115C17.7423 97.2117 18.3323 97.5722 18.4143 97.8783C18.6243 97.7508 18.5235 97.5501 18.8648 97.7254C18.7609 97.8928 18.7827 98.1549 19.0813 98.1727C18.8383 98.3603 19.2734 98.5215 19.4073 98.6648C19.2255 98.5275 18.8511 98.4123 18.7298 98.6892C18.7381 98.9013 18.7815 99.058 19.0559 99.3447L18.7769 99.2181C18.6348 99.7712 19.3823 99.4672 19.5576 99.9274C19.5804 99.6545 19.5046 99.5571 19.5753 99.2809C19.6012 99.5417 19.6725 100.023 19.789 100.377L20.3936 100.392C20.2526 100.574 20.6979 100.715 20.4623 100.913C20.9401 101.153 20.4875 100.375 20.6305 100.196C21.1854 100.529 20.5588 100.899 21.3006 101.041L21.3916 100.707C21.5335 100.841 21.6642 101.246 21.7891 101.169C21.7108 101.237 21.6783 101.136 21.5992 101.043C21.2113 101.535 21.8648 102.012 21.3396 102.376L21.1307 102.196C21.3108 102.594 21.1856 103.109 21.5639 103.206C21.8781 103.259 21.7703 102.787 21.7984 102.566C22.0885 102.835 21.4802 103.282 21.8547 103.584C21.6074 103.471 21.4724 103.658 21.4551 103.876C21.2266 103.711 20.7717 103.343 21.0337 103.246L21.1452 103.28C21.2511 103.151 21.1996 102.997 21.2124 102.886C20.9683 102.601 20.8835 102.943 20.7417 102.967C20.257 102.558 21.1857 102.51 20.799 102.091L20.6571 102.115C20.6022 101.799 20.3439 101.464 20.5929 101.156C20.1167 101.232 20.2999 100.564 19.9357 100.515C19.2074 101.05 20.6112 101.208 20.4455 101.771C20.1103 101.664 20.2296 102.18 20.1569 102.411L19.8352 101.437C19.6927 101.459 19.1646 101.536 19.3048 101.194L19.3696 101.238C19.2032 100.886 19.5543 100.73 19.2488 100.561C19.1536 100.573 19.1037 100.742 19.0741 100.799C18.822 100.617 19.0785 100.473 19.0189 100.265C18.7722 100.079 18.8233 100.616 18.5915 100.48C18.6498 99.986 18.1893 100.095 18.0195 99.8416C18.4989 99.6245 17.8387 98.4689 18.5907 98.7052L18.4313 97.929C18.0813 97.9125 18.1618 98.7515 17.6985 98.8565L18.0657 99.3006C17.5019 99.6115 17.6593 98.0965 16.8563 98.2208C16.6447 97.993 16.7602 98.0046 16.1689 97.7089L16.6868 97.4574C16.4083 97.2869 16.1004 97.3866 16.0079 97.4358C15.9362 97.2683 15.8321 97.1453 15.7171 97.0236C15.6733 97.108 15.6463 97.2025 15.6842 97.3093C15.2958 97.3028 15.3531 97.1793 15.4449 97.0172C15.4913 96.8329 15.3683 96.6896 15.2547 96.5368L15.1792 96.7988C15.1514 96.6766 15.1202 96.5239 15.1972 96.455C15.1539 96.3888 15.1214 96.3199 15.1092 96.2415C15.22 96.2281 15.5651 96.1426 15.8408 96.2807C15.2575 95.831 15.0402 95.3167 14.3111 95.075C14.1829 95.1856 14.1555 95.5078 14.096 95.4564C13.8574 95.2488 13.9286 94.8085 14.1487 94.6993C14.1263 94.6324 14.1034 94.5851 14.0804 94.5445C13.9311 94.5721 13.7663 94.5936 13.6689 94.4854C13.6081 94.4853 13.5412 94.463 13.4702 94.3853C13.7976 94.0566 13.2987 93.686 13.406 93.4706C13.5175 93.5619 13.6027 93.7052 13.6805 93.8572C13.8059 93.4899 13.9845 93.1259 13.6792 93.0959C13.6743 93.6282 13.0252 92.9346 13.2791 93.5772C12.538 93.4719 13.4955 93.1498 13.0548 92.8279L12.6886 92.6668C12.4335 92.8787 12.8302 93.2026 12.6837 93.2019L12.5977 92.9863C12.5081 93.3084 13.1038 93.954 13.0746 94.6038L12.3512 93.7913C11.942 92.4629 10.7629 91.1933 10.8313 89.8553L10.8469 89.9019C10.8658 89.8695 10.9144 89.8317 11.017 89.7588L10.9197 89.7534L11.0282 89.4407C10.6296 89.3647 10.3463 88.9734 9.95496 88.7157C10.2496 88.8524 10.2489 88.8517 10.4785 88.7614C10.7478 88.5637 10.8545 88.4652 10.5793 88.1833C10.37 88.2858 10.4789 88.4932 10.1904 88.3261C10.3566 88.4033 10.4456 88.2129 10.3988 88.0527C10.1697 87.9303 9.98307 87.6262 9.77173 87.7266C9.759 87.8435 9.86643 87.8794 9.92726 87.924C9.9152 88.0415 9.56025 87.6569 9.52002 88.0068L9.40825 87.6291C9.13256 87.5126 9.19906 87.9004 9.04706 87.8753C8.90127 87.222 9.23923 86.6934 9.12593 86.1063C9.02602 86.1832 8.55677 86.4104 8.69045 86.3403C8.33892 86.0063 8.81177 85.2239 8.64249 84.7468C8.53115 84.8785 8.66365 85.0272 8.65704 85.1987C7.86018 83.8484 7.31073 82.6997 6.35323 81.4898L6.71885 80.9429L6.24985 80.7088C5.35371 79.3861 5.36077 78.1176 5.0522 76.682C4.94375 76.2374 4.6103 76.5289 4.40009 76.366C4.05816 75.4126 4.58873 75.005 4.45215 74.0572C4.32801 74.226 3.94193 74.5634 3.8119 74.1688C3.94082 74.0548 4.16296 73.9448 4.00268 73.7171L3.87784 73.8865C3.58318 73.716 3.74304 73.4372 3.51435 72.9844C3.31232 72.1332 3.5196 71.2268 3.94108 70.4133C3.7243 69.6782 3.39411 70.6087 3.24946 70.4924C3.5579 70.9817 3.23832 70.8808 3.08241 71.0353C3.16861 70.7206 3.18515 70.3633 2.77913 70.2961C2.71597 69.8981 2.65975 69.7231 2.82758 69.2863C2.74333 69.5057 2.98188 69.6336 3.11206 69.4169C2.90444 69.1242 2.924 68.2732 2.45736 68.4045C2.3505 67.4567 2.15915 66.4663 2.00697 65.4516C1.87304 64.4349 1.72831 63.402 1.61734 62.388C1.82102 62.0234 1.74385 62.6373 1.89364 62.4334C2.1573 61.9088 1.69338 62.0564 1.91458 61.6364L1.66681 61.8233C1.58458 61.2322 2.0197 60.5645 2.21915 59.9811C1.92946 60.095 1.93977 59.5276 1.79766 60.0131C1.82714 59.7321 0.476629 59.4669 0.731757 59.2307L1.98972 59.479C2.10993 59.4561 2.00695 59.0697 2.09142 59.1042C1.82711 58.8736 1.52354 58.5863 1.52475 58.4161C1.21059 58.3462 1.28326 58.7725 1.31386 59.0056C0.785687 59.0686 0.94101 58.2278 0.477268 58.5915C0.549784 58.0795 0.746837 58.6518 0.931654 58.3413L0.809019 57.9041L0.993026 58.238C1.14063 57.8632 1.53429 57.7264 1.23059 57.2459L1.728 56.7282C1.31457 56.6847 1.64325 56.3614 1.54035 56.1033L1.28179 56.2699C1.28622 55.9234 1.21248 55.7902 1.05626 55.5733C0.698424 55.7716 1.15109 55.8868 0.810048 55.975L0.67868 55.5925C0.912394 55.5927 1.08916 55.3497 1.23732 55.622C1.65919 55.2664 2.02311 55.077 2.01021 54.2002C1.62011 53.7966 1.64649 54.6234 1.2566 54.4535C1.10787 53.5273 2.31953 53.3541 2.28395 52.8245C2.14084 52.1414 2.49483 52.1944 2.55504 51.5136C2.26814 51.7166 2.29794 51.0203 2.04856 50.8789L1.74821 51.1346C1.84733 50.93 1.75527 50.7219 1.55267 50.7717C1.9168 50.8322 1.95858 49.898 2.16758 49.4389L2.47434 49.5459C2.60507 49.1853 2.83836 48.6937 2.78533 48.2965C2.94831 47.7292 3.21392 47.8882 3.60467 47.4839C3.35113 47.2101 3.01676 47.1984 2.66622 47.2433C2.80754 47.4157 2.68279 47.6675 2.74922 47.9324C2.4006 48.6339 1.71949 49.1582 1.81268 49.9101C1.03138 50.1762 1.93587 49.4164 1.69508 49.0366C1.64915 49.0433 1.63228 49.0682 1.62285 49.0953C1.6235 49.0635 1.62145 49.0345 1.60723 49.0027C1.49533 49.2607 1.3437 49.6854 0.951285 49.7303C1.06101 49.2866 1.73125 49.4655 1.44503 48.885C1.68989 48.4941 1.10594 48.1032 1.08951 47.8479C1.40475 47.6016 2.0134 47.6541 1.97499 46.9746L1.51655 47.2207C1.5983 46.4602 2.17894 46.9342 2.24252 46.2352C2.26367 46.4858 2.68547 46.0504 2.64197 46.5158C2.89442 46.3147 2.99734 45.8183 2.92 45.4265C2.99558 45.3374 3.0659 45.4253 3.21113 45.4274C3.45537 45.8795 2.84757 46.0465 3.22955 46.4393L2.73936 46.6726C2.85859 47.0793 3.22071 47.158 3.42925 46.9441C3.39759 47.0501 3.32337 47.1378 3.39369 47.2257C4.07267 47.3688 3.20415 46.7379 3.80189 46.6728L3.72039 46.9369C4.15216 47.1041 4.18595 46.3564 4.19646 46.0065C4.03399 45.5875 4.00125 45.2173 3.68236 45.1455L3.48084 45.6566C3.25969 45.3464 3.70522 44.9983 3.74414 44.6916C3.70359 44.6646 3.67519 44.6308 3.65827 44.5909C3.68395 44.6112 3.71165 44.6241 3.7434 44.6288C3.73794 44.5613 3.70883 44.497 3.63988 44.4362C3.66869 44.164 3.93115 43.8002 3.87013 43.534L4.15186 43.6119L3.98502 43.6192C3.95484 43.867 4.07537 44.2278 4.32112 44.0754C4.61248 43.5569 4.08006 43.3551 3.85227 43.18C3.39165 43.235 3.76492 43.7244 3.5679 43.9822C3.16241 43.7428 3.6174 43.4081 3.42773 42.7825C2.91247 42.9313 3.32225 43.4545 2.86094 43.5101C2.8585 43.0272 3.21644 42.9626 3.17885 42.4499C2.94786 42.474 2.84628 42.9515 2.56792 42.8716L2.48522 42.5297C2.32648 43.3091 1.91694 42.2894 1.69724 42.8836C1.55106 42.5593 2.15358 42.545 1.92149 42.0794C2.10873 42.2328 2.43126 42.6256 2.68291 42.2671L2.61765 41.7983C2.41954 41.5691 2.0337 42.17 1.88887 41.8443L2.12962 41.4061C2.26813 41.4487 2.30211 41.6852 2.5202 41.582C2.41457 41.2847 3.13392 41.2441 3.41536 40.9776C3.45771 40.7283 3.47173 40.5264 3.32572 40.4047C3.87848 39.8682 4.03519 39.0787 4.55355 38.6009C4.18771 38.9234 4.07723 38.4741 3.91689 38.1883C3.75921 38.6245 3.3187 38.5268 3.04302 38.4293C3.15087 38.1619 3.64257 38.0894 3.76025 38.2638C3.68552 37.7612 4.12343 38.0182 3.9366 37.5479C3.85461 37.2513 3.46919 37.5705 3.3279 37.44C3.44096 36.9403 3.89666 37.4392 3.93671 36.8785C3.87053 36.8933 3.83949 36.9366 3.76987 36.8737C3.75541 36.5609 4.0443 36.3031 4.27733 36.3C3.79195 35.8402 4.57111 35.4532 4.00363 35.3608C4.33946 34.7032 4.27669 35.5502 4.50628 35.4653C4.82762 35.2494 4.76836 34.6677 4.72564 34.4766C4.66769 34.644 4.47461 34.7587 4.5153 34.9492L4.17261 34.6916C4.13397 33.7378 5.19571 34.3999 5.12129 33.4752C4.78657 33.8383 4.78833 33.5269 4.45205 33.6563C4.58841 33.5564 4.6905 32.8743 4.85438 33.3581C4.92233 33.0373 4.92414 32.8002 4.92326 32.5631C5.15813 32.3336 5.35921 32.069 5.65703 31.9916C5.75729 31.5466 5.59415 31.1337 5.49733 30.8682C6.1039 30.0655 5.95849 29.063 6.6015 28.2239L6.5975 28.3023C6.80558 27.5412 6.96675 28.82 7.24034 28.0556C6.74718 27.9755 7.10543 27.4766 6.97951 27.1401C7.14818 26.121 7.99419 25.6941 8.06225 24.7161C7.9663 24.6809 7.83188 24.6855 7.74894 24.8441C7.88004 24.1276 8.22886 23.6598 8.48842 23.077L8.42223 23.0757C8.53073 21.9882 9.33873 21.3465 9.95199 20.4804C9.85612 20.5263 9.68313 20.4599 9.59399 20.4869C9.75634 19.9689 10.1123 19.183 10.6817 19.0747C10.5729 18.2843 11.0117 18.7825 11.0062 17.8375C10.9554 17.753 10.8975 17.8678 10.8549 17.9063C10.9066 17.4707 11.1036 17.2547 11.2715 16.8799C12.0133 16.276 12.6599 16.4245 13.0495 15.4467C12.5202 15.043 12.573 15.8989 12.1161 15.6364C12.3261 15.5224 12.5348 15.4436 12.5547 15.114C12.2454 15.1205 12.398 15.0571 12.1311 15.0278C12.1032 14.7448 13.1819 14.6505 13.1258 14.6214C13.2386 14.6816 13.2569 14.7836 13.1328 14.9469C13.5908 14.9581 13.7258 14.1186 14.1484 13.7988C14.0648 13.9392 13.8801 14.4308 14.2489 14.4487C14.5159 13.8208 15.1672 13.9983 15.6473 13.7711C15.7514 13.0977 14.934 13.8218 14.6176 13.4635C14.5377 13.2824 14.3766 12.8648 14.0781 12.9754C14.3175 12.4575 14.8733 12.356 15.2384 12.0084L15.1242 11.9428C15.5567 11.394 16.4948 11.1753 16.63 10.5506L16.5608 10.8849C16.6924 10.8424 16.8759 10.544 17.2042 10.5564C17.0183 10.4394 17.1402 9.96198 16.8856 9.99757C17.6294 10.1894 18.1681 9.00705 18.914 9.17791C18.8976 8.92797 18.5848 8.85813 18.4253 8.79991C18.1845 9.16513 18.215 9.37793 17.8537 9.381C18.0811 9.09952 18.1092 8.77939 17.9517 8.72319C18.5259 8.72098 19.2171 8.17847 19.6651 8.32408C19.6695 7.98432 19.7443 7.71623 19.4098 7.55045C20.3001 6.85885 19.9025 8.69242 20.7055 7.74879C20.8103 7.08827 19.9882 7.8549 20.4071 7.18316L20.2701 7.25534C20.1691 6.93305 20.2021 6.82297 20.3075 6.80955L20.2548 6.75682C20.2601 6.61362 20.3383 6.54074 20.2889 6.34277C20.1938 6.49738 20.1324 5.78673 20.0207 5.57385C19.9309 5.58526 19.8607 5.61492 19.8291 5.78309C19.6038 5.35667 19.3194 5.37196 19.1117 4.96717C19.2531 5.25572 19.106 5.45957 19.0225 5.677C19.1853 5.73725 19.187 6.18984 19.1758 6.47961C19.0771 6.43089 19.0119 5.9661 19.0618 5.81484C18.8971 5.99977 18.9473 5.50201 18.8024 5.80517C18.7086 5.96113 18.85 6.25102 18.8178 6.42121C18.6395 6.44132 18.7687 5.87271 18.5749 5.97859C18.5851 6.03871 18.6033 6.05695 18.5878 6.14137C18.4832 6.23652 18.3703 6.02365 18.3478 5.80004C18.2368 6.38829 18.0336 5.73697 18.0564 6.30776C17.803 6.15421 18.0933 5.99505 18.0438 5.79574C17.9396 5.54168 17.7486 5.75022 17.6879 5.84069C17.7507 5.85357 17.8082 6.00967 17.8683 5.92124L17.8152 6.31904C17.5 6.60179 17.6145 5.41912 17.3102 5.76403C17.4671 5.97086 17.3625 6.06466 17.4404 6.34505C17.3937 6.24572 17.1554 6.35697 17.2983 6.05313C17.1842 6.08613 17.1045 6.15766 17.0256 6.22987C16.9241 6.07712 16.8139 5.96693 16.7542 5.7075C16.5942 5.74856 16.4762 6.03014 16.4 6.20367C16.0634 5.91563 15.7531 6.40576 15.3976 6.10014L15.4239 6.07651C15.149 6.1499 15.545 5.54841 15.2593 5.56235C15.2982 6.0494 15.088 5.89047 14.9963 6.14843C14.646 6.39738 14.3902 5.79194 14.0669 6.11927C14.0697 6.22059 14.0907 6.34288 14.1529 6.35509C13.9064 6.50821 13.7078 6.41076 13.4849 6.43623L13.4944 6.4957C13.1381 6.88988 12.8141 6.41472 12.4452 6.29822C12.4756 6.35972 12.4832 6.54279 12.5063 6.60766C12.3206 6.7176 12.0234 6.78759 11.8927 6.34369C11.6722 6.82241 11.7467 6.19766 11.4634 6.66214C11.4472 6.74724 11.4911 6.74255 11.5107 6.7608C11.3717 6.92145 11.2717 6.87139 11.1306 6.92869C10.8189 6.61838 10.7407 5.99213 10.3788 6.17961C10.3605 6.84156 10.6012 6.34395 10.6097 6.87082C10.5374 6.75391 10.4744 6.61809 10.3753 6.77539C10.4356 7.03415 10.3882 6.93819 10.4303 7.18004C10.3542 7.35358 10.1224 6.49011 10.1238 6.55225C10.1196 6.42391 10.1453 6.35504 10.2175 6.37334C10.1328 5.96596 9.86222 6.33926 9.68646 6.17565C9.74387 6.16421 9.92276 6.03535 9.85494 5.72187C9.61932 5.86149 9.54109 5.22579 9.37672 4.96154C9.16015 5.26059 9.5373 5.5176 9.49649 5.98162C9.46016 6.15046 9.37334 6.52123 9.46468 6.70166C9.26955 6.80078 9.12939 6.40281 8.95571 6.30201L8.96053 6.43237C8.71732 6.37812 8.45812 5.80444 8.25503 6.06837L8.36297 5.91851C8.32373 5.84012 8.20082 5.87783 8.13305 5.61028C8.14067 5.82846 7.98277 6.02423 8.04777 6.20396C7.9391 5.50542 7.49554 5.77997 7.37407 5.11858C7.30937 5.29279 7.36163 5.57585 7.38136 5.73461C7.53464 5.67462 7.58652 5.5362 7.66714 5.81524C7.54015 5.80567 7.44641 5.98459 7.46613 6.14334C7.33809 5.7089 7.03467 5.53776 6.97013 5.10337C6.8771 5.32079 6.78871 5.43893 6.82145 5.80101C6.43015 5.57574 7.01366 4.68394 6.57258 4.68964C6.37159 5.04071 6.76955 5.16467 6.49204 5.28399L6.54341 5.34077C6.34427 6.27275 6.40235 4.67597 6.17474 4.70617C6.14478 5.21478 6.33311 5.06836 6.17739 5.43231C5.96923 5.30379 5.87809 4.55125 5.67018 4.71454L5.70278 4.93072C5.56968 4.89075 5.31106 4.99388 5.17931 4.95391C5.17264 5.05388 5.19222 5.0397 5.21791 5.06674C4.97288 5.25905 5.11501 4.80728 4.91537 5.15835L4.85774 4.91175C4.95823 4.73689 5.15257 4.48849 5.28049 4.77838C5.15257 4.48849 5.4792 4.13616 5.41601 3.70313L5.44115 3.87675C5.77353 3.13198 6.2017 3.03914 6.62296 2.75985C6.88954 3.27884 7.07602 2.55151 7.36205 2.91043C7.40714 3.50354 7.41553 3.03003 7.66083 3.14845C7.53107 3.07404 7.6449 2.69655 7.72724 2.61692C7.77533 2.77029 7.83346 2.82572 7.89228 2.88048C7.94141 2.67721 8.25037 2.20059 8.36352 2.6026C8.51264 2.41292 8.32823 2.41207 8.2957 2.2891C8.35623 1.98519 8.4175 2.52698 8.46731 2.32303C8.46731 2.32303 8.46522 2.25885 8.44898 2.22912C8.67732 2.25363 8.81363 2.09839 9.05133 2.0243C9.07142 2.60725 9.28523 2.24335 9.39146 2.45216C9.35685 2.26367 9.52502 2.23478 9.59247 2.12405L9.71983 2.55647C9.84579 2.92403 9.89456 2.29791 10.0582 2.49664L10.0191 2.60062C10.1381 2.775 10.4513 2.42538 10.5679 2.11274C11.6685 3.25118 12.2681 1.47518 13.4269 1.78486C13.5027 1.96055 13.3717 2.07933 13.4307 2.33945C13.5483 2.40709 13.5753 2.38281 13.6827 2.39033C13.5883 2.54696 13.603 2.35242 13.6153 2.51454L13.451 2.35025C13.4429 2.39348 13.4612 2.41039 13.4457 2.49347C13.3903 2.43938 13.3253 2.32312 13.2551 2.35414C13.3566 2.50553 13.3853 2.93515 13.5243 2.77181C13.5134 2.71235 13.4952 2.69412 13.4594 2.65693C13.5735 2.62258 13.5797 2.82862 13.6661 2.71521C13.7714 2.61938 13.7452 2.75241 13.7592 2.56531L14.0866 2.33392C14.2505 2.84742 14.4514 2.35854 14.504 2.3113C14.4686 1.92625 14.2871 2.19293 14.2064 1.81392L14.3244 1.53233L14.3314 1.84037L14.4995 1.75606L14.49 1.69662C14.5103 1.81687 14.5307 1.93712 14.5739 1.83043C14.5813 1.78788 14.5974 1.70414 14.5785 1.68521L14.6989 1.85553C14.629 1.53597 14.8035 1.76039 14.7856 1.39292C15.1765 1.20885 15.2832 1.88912 15.6266 1.38754C15.5706 1.56109 15.7365 1.96855 15.8418 1.90109C15.9032 1.8113 15.918 1.72754 15.8793 1.58769L16.018 1.77626C16.1911 1.20158 16.3616 1.57189 16.6154 1.37622L16.6018 1.2141C16.6965 1.40602 16.798 1.55876 16.9398 1.49944L16.9138 1.1752C17.0872 0.947712 17.0468 1.85619 17.2378 1.64898C17.2367 1.99752 17.116 2.17644 17.098 2.50673C17.143 2.15214 17.3483 2.09963 17.3005 2.35153C17.4918 2.49423 17.4329 2.34219 17.449 2.25845L17.5614 2.47062C17.6958 2.45385 17.6042 2.01404 17.554 1.81406C17.6793 2.18906 17.8156 1.92573 17.9574 1.86641L17.8998 1.71034L18.0862 1.647C18.2087 1.91933 18.3789 1.93974 18.5355 1.79668L18.4263 1.33792C18.5369 1.0989 18.4839 1.49672 18.5123 1.5751C18.6868 1.79951 18.7244 1.48746 18.816 1.22816C19.0954 1.70731 19.372 0.476136 19.6117 1.16533L19.6405 0.894504C19.9672 1.47097 20.3401 0.645179 20.6015 1.45462C20.9978 0.503893 20.8623 2.30662 21.2256 1.45515L21.2136 1.59023L21.6661 1.51768L21.8937 1.47395L22.3043 1.42837C22.867 1.36739 23.4519 1.3044 24.0408 1.26167C25.2114 1.17553 26.4191 1.1671 27.2454 1.39679L27.4155 1.20644C27.5972 1.19241 27.7775 1.17839 27.9552 1.16436C28.0794 2.69239 28.0538 4.40539 28.0154 6.04069L27.9643 7.87658C27.9552 8.29942 27.9603 8.72295 27.9958 9.14853C27.8196 9.31522 27.4001 9.21422 27.1888 9.35792C27.2057 9.42075 27.1828 9.56121 27.4165 9.56276C27.5448 9.44129 27.7522 9.5097 27.844 9.46925C27.8199 9.67052 28.0903 9.93013 27.8047 10.1089L27.5027 9.95801C27.3757 10.0281 27.4616 10.137 27.4765 10.2005C27.6305 10.1736 27.9609 10.2664 28.0345 10.2118C27.2837 10.5894 28.3569 10.5072 28.0607 10.8265C27.419 10.8894 26.8932 11.2882 26.4361 11.5505L26.6031 11.6892C26.5989 11.5054 27.0712 11.693 27.0406 11.4653C27.2252 11.6553 26.9504 11.8313 27.0532 12.0111C26.8924 11.9758 26.6817 11.9851 26.6088 12.0566C26.6967 12.1675 27.0189 12.1765 27.0514 12.3035L27.2526 12.1794C27.4932 12.2634 27.1764 12.3354 27.1366 12.413C27.4048 12.4383 27.4543 12.6268 27.7528 12.5933C27.3862 12.7625 27.5936 12.8228 27.3614 13.0049C27.0782 12.8149 27.0088 13.0533 26.7852 13.0321L26.8911 12.8181C27.0704 13.1202 26.939 12.7202 27.3963 12.7429C27.1854 12.6009 26.6427 12.9368 26.714 12.6991C26.4813 12.9833 26.686 13.0436 26.3073 13.333C26.3929 13.1581 26.0094 13.3659 25.8695 13.2718C25.8528 13.4941 26.0296 13.3267 26.3242 13.3958C26.3115 13.5167 26.5709 13.5616 26.2339 13.6727C26.3719 13.8687 26.577 13.6433 26.7636 13.7434C27.079 13.6714 26.3747 13.1966 27.3812 13.2515C27.3919 13.1489 27.7768 13.0249 27.7558 12.877C27.8876 13.0061 28.2181 13.1908 27.9892 13.3493L27.4218 13.3569C27.4078 13.4778 27.0234 13.5025 27.0728 13.5897C27.2362 13.5439 27.4754 13.6278 27.4289 13.7244C27.3485 13.6966 27.3667 13.6581 27.2681 13.6689C27.2257 13.8492 26.8393 13.8732 26.7328 14.0879C26.5854 13.9108 26.4151 13.8742 26.1698 13.7084C25.7727 13.7527 26.1118 13.8246 26.0639 13.9225C26.1179 13.9077 26.1287 13.8874 26.2078 13.9165L26.0167 14.0197C26.1885 14.2401 26.5922 13.9932 26.7842 14.1744C27.118 14.3003 26.5986 14.3465 26.7871 14.4432C26.7507 14.4364 26.7121 14.429 26.6865 14.4249C26.6932 14.4465 26.7027 14.4614 26.7142 14.4729L26.6865 14.4708C26.6285 14.5883 26.6604 14.7133 26.3639 14.7462C26.499 14.7584 26.3248 14.8488 26.2329 14.8865C26.1141 14.9513 25.763 15.1077 26.2413 15.2054L26.244 15.1986C26.3009 15.3446 26.4509 15.4582 26.6117 15.4272L26.7308 15.6624L27.1171 15.6371C27.0126 15.8511 26.787 15.8293 26.3885 15.9762C26.6177 16.1297 26.4328 16.3984 26.2897 16.4996C26.3053 16.5165 26.3066 16.5422 26.2857 16.5847L26.1337 16.4948C26.15 16.6623 25.946 16.6419 25.9441 16.752C25.9076 16.729 25.886 16.7262 25.9468 16.7871C25.9441 16.7736 25.9441 16.7628 25.9441 16.752C25.961 16.7635 25.9772 16.7783 25.99 16.7952L25.9482 16.7884C25.9543 16.8067 25.9617 16.8263 25.9759 16.8499C26.0171 16.8439 26.0103 16.8196 25.9907 16.7946L26.1204 16.8149C26.5312 16.949 25.8869 17.0201 26.0309 17.1627C26.0457 17.1492 26.0721 17.1256 26.0687 17.1114C26.1721 17.1919 26.72 17.3079 26.3857 17.3407C26.4283 17.359 26.3614 17.388 26.2777 17.4149L26.3358 17.4744C26.3182 17.45 26.2973 17.4318 26.2763 17.4163C26.1656 17.4526 26.0278 17.4876 26.1109 17.4924L26.18 17.6978C26.2354 17.7371 26.1881 17.7897 26.1335 17.8322L26.2943 17.8675C26.27 17.9418 26.3659 17.9432 26.4098 17.9345C26.966 18.195 26.1251 18.3354 26.6077 18.6168C26.3402 18.6707 26.2185 18.5544 26.0753 18.5448C25.8693 18.5885 25.6857 18.7491 25.5399 18.8287C25.9095 18.954 26.2368 19.3379 26.7697 19.2769C26.8111 19.5087 26.4406 19.2044 26.257 19.3204L26.278 19.3468C26.2157 19.267 26.0333 19.2047 25.8279 19.1586C25.5402 19.1408 25.4566 19.3447 25.539 19.4083L25.949 19.3647C25.806 19.578 25.1899 19.5329 24.7787 19.6657C24.9409 19.836 25.313 19.7384 25.6798 19.7745L25.5773 19.9527L25.8853 19.953C25.8037 20.0684 25.5167 20.0959 25.637 20.2568C25.9267 20.1415 25.9236 20.4975 26.3146 20.3377C26.4174 20.427 25.823 20.4521 26.233 20.4977C25.9048 20.5596 26.0695 20.4179 25.9661 20.3725C25.4946 20.3357 25.7393 20.5682 25.6171 20.6755C25.861 20.6845 25.9048 20.6042 26.0677 20.7306C25.8827 20.7561 25.7389 20.8364 25.9652 20.9075C25.6572 20.9073 25.9032 21.0506 25.9221 21.1223C25.862 21.0418 25.6363 20.9255 25.3702 20.9779C25.2466 21.0406 25.1852 21.0939 25.2265 21.2365L25.0826 21.1384C24.6308 21.263 25.409 21.3447 25.2659 21.5135C25.4509 21.4421 25.4509 21.3975 25.6765 21.3355C25.5327 21.4158 25.3079 21.5676 25.1648 21.6917L25.6141 21.8346C25.3885 21.852 25.6345 21.9954 25.3265 21.9952C25.5326 22.173 25.6965 21.8523 25.9221 21.8349C26.1256 22.0587 25.4095 22.0135 25.8799 22.2273L26.1669 22.1566C26.1879 22.2276 26.0232 22.3706 26.1671 22.3796C26.0644 22.3795 26.1056 22.3437 26.1055 22.2991C25.4902 22.3425 25.6749 22.6284 25.0392 22.6015L24.9979 22.5035C24.8751 22.6547 24.4442 22.7611 24.6686 22.8774C24.874 22.9668 25.0995 22.8157 25.2636 22.7624C25.3043 22.9043 24.5659 22.8774 24.6275 23.047C24.5248 22.9577 24.2985 22.9744 24.1351 23.0283C24.0938 22.9303 23.9721 22.7249 24.2396 22.7616L24.3011 22.7974C24.4652 22.7888 24.5266 22.7355 24.609 22.7085C24.6089 22.5748 24.3212 22.6461 24.1983 22.619C24.0967 22.396 24.8339 22.6013 24.8134 22.3973L24.6905 22.3702C24.8545 22.2724 24.8767 22.1204 25.2671 22.0937C24.8556 22.0035 25.4304 21.8629 25.1858 21.764C24.2833 21.7443 25.2468 22.1113 24.7538 22.227C24.5687 22.1201 24.3223 22.2881 24.117 22.3326L24.5071 21.9951C24.3841 21.968 23.9335 21.8683 24.2624 21.8071L24.2834 21.8335C24.3859 21.6999 24.7554 21.736 24.6324 21.6197C24.55 21.602 24.4068 21.637 24.3454 21.6458C24.2629 21.539 24.5506 21.5568 24.633 21.4852C24.5518 21.3785 24.2635 21.5383 24.1621 21.449C24.5106 21.3251 24.0796 21.2531 24.1011 21.145C24.6131 21.1914 24.7992 20.7187 25.2499 20.9508L25.5996 20.6931C25.3327 20.6125 24.8831 20.8701 24.4507 20.7982L24.4698 21.0035C23.8328 20.9685 24.8862 20.5736 24.1741 20.4365C24.1463 20.3264 24.2355 20.3535 23.9185 20.1459L24.488 20.1821C24.3575 20.0746 24.0468 20.0392 23.9428 20.0337C23.9792 19.9703 23.9649 19.9142 23.9406 19.8547C23.8561 19.8702 23.7805 19.8918 23.7502 19.9302C23.434 19.8489 23.5521 19.8254 23.721 19.7971C23.8648 19.7533 23.8452 19.6865 23.8404 19.6196L23.6283 19.6802C23.6763 19.639 23.737 19.5891 23.8397 19.5838C23.8417 19.5561 23.8552 19.5291 23.8896 19.5041C23.9889 19.5225 24.3206 19.5666 24.4679 19.664C24.2435 19.4139 24.3669 19.2188 23.8966 19.0036C23.7318 19.0116 23.5279 19.1006 23.5069 19.0742C23.4244 18.9674 23.7114 18.8508 23.958 18.8611C23.9741 18.8368 23.9802 18.8186 23.9815 18.8024C23.8397 18.782 23.689 18.7569 23.664 18.7062C23.612 18.6947 23.5674 18.6757 23.5491 18.6385C24.001 18.6031 23.7745 18.3983 23.9798 18.3539C24.0265 18.4019 24.0225 18.4613 24.0077 18.5221C24.3088 18.4359 24.6533 18.3592 24.41 18.2928C24.1231 18.4526 23.9404 18.1215 23.8157 18.3625C23.2434 18.1925 24.2256 18.2744 24.0221 18.0952L23.7964 17.9788C23.4682 17.9961 23.6318 18.1665 23.5088 18.1393L23.55 18.059C23.3035 18.1392 23.4659 18.4433 23.0972 18.6294L22.9138 18.2543C23.3045 17.7825 22.8548 17.1924 23.5752 16.7925L23.5665 16.8094C23.5982 16.802 23.6597 16.7986 23.7846 16.794L23.7029 16.7757L23.9507 16.6969C23.6433 16.6068 23.5823 16.4379 23.337 16.2938C23.5404 16.3838 23.5404 16.3838 23.7863 16.3935C24.1152 16.3755 24.2544 16.3621 24.1334 16.2276C23.9003 16.2254 23.9065 16.3085 23.7213 16.2097C23.8362 16.2611 24.0003 16.216 24.0293 16.1573C23.8779 16.0815 23.8454 15.9558 23.6117 15.9543C23.5482 15.9893 23.6286 16.0171 23.6631 16.0408C23.6003 16.0752 23.4522 15.8987 23.2605 16.0026L23.3272 15.8669C23.1312 15.787 23.0192 15.9193 22.8942 15.8874C23.0528 15.6613 23.5904 15.5456 23.7496 15.3404C23.6253 15.3497 23.1039 15.352 23.2552 15.3494C23.0983 15.1912 23.8216 15.0115 23.864 14.8325C23.7093 14.8587 23.7715 14.9263 23.6966 14.9796C23.4982 14.4303 23.487 13.9804 22.9901 13.4646L23.525 13.3313L23.1689 13.1966C22.826 12.6539 23.1714 12.2381 23.3318 11.7235C23.3654 11.5628 22.9582 11.6266 22.8075 11.5515C22.7464 11.1988 23.3508 11.1136 23.4715 10.778C23.3074 10.8244 22.8468 10.9024 22.8237 10.7578C22.9783 10.7316 23.2208 10.7136 23.1255 10.6223L22.9614 10.6688C22.7208 10.5848 22.9484 10.5046 22.8456 10.3316C22.8561 10.0263 23.2355 9.73619 23.8263 9.48474C23.7714 9.21518 23.2502 9.51194 23.1339 9.4605C23.3307 9.65048 23.0395 9.5928 22.8544 9.63317C23.0063 9.53266 23.0988 9.41048 22.7164 9.35881C22.7393 9.21833 22.7223 9.15549 22.9796 9.01724C22.8506 9.0867 23.0567 9.14699 23.2302 9.08162C23.0971 8.96735 23.242 8.67501 22.7651 8.69082C22.8041 8.4085 22.8059 8.11061 22.8002 7.80799C22.5615 8.23875 22.2977 8.6661 22.0745 9.12726C21.2074 9.33997 21.4297 10.1994 20.6485 10.5587C20.1153 10.278 20.4485 10.5842 19.9498 11.0424C20.2252 10.8076 20.3262 11.2934 20.2534 11.5189C20.0542 11.5262 19.9131 11.6172 19.7727 11.709C19.8479 11.9434 19.7136 12.8984 19.2056 12.8953C19.1094 13.3309 19.4157 12.9354 19.567 12.9409C19.7085 13.2551 19.1754 13.0567 19.2566 13.2865C19.2566 13.2865 19.312 13.3203 19.3613 13.3048C18.9619 13.7773 18.8581 14.1595 18.5594 14.7341C18.0559 14.4371 18.02 15.1247 17.6864 15.2393C17.8938 15.2712 17.6578 15.6614 17.6451 15.8728L17.0906 15.9109C16.5894 15.9861 17.0336 16.4465 16.6157 16.6981L16.5899 16.5521C16.2584 16.7227 16.1099 17.6446 16.2055 18.0763C15.5717 18.5534 15.133 19.0637 14.8052 19.5916C14.4956 20.1311 14.3104 20.6963 14.1386 21.2709C13.9702 21.8477 13.8181 22.4338 13.6078 23.0416C13.4199 23.6608 13.1658 24.2976 12.7516 24.9606C12.5031 25.0657 12.5528 24.6983 12.2482 24.7271C12.0471 24.9836 12.0364 25.0592 11.9001 25.3158C11.8729 25.0186 12.0297 25.139 11.8689 25.0983L12.2138 24.771C12.1847 24.7324 12.1476 24.7696 12.0915 24.6945C12.2062 24.5839 12.3885 24.4773 12.4457 24.2916C12.1892 24.471 11.7683 24.3525 11.747 24.7631C11.8132 24.7632 11.8517 24.7274 11.9293 24.6539C11.8221 24.9476 11.6289 24.8731 11.6278 25.1325C11.5868 25.4304 11.4982 25.3107 11.651 25.423C11.5837 25.7188 11.5394 26.0241 11.493 26.3273C10.8481 26.522 11.077 27.2247 11.065 27.3733C11.4561 27.4391 11.4064 26.8832 11.8386 26.839L11.97 27.2444L11.6801 27.1367L11.5779 27.5851L11.642 27.5859C11.5103 27.5864 11.3786 27.5897 11.4301 27.7383C11.4612 27.7735 11.5213 27.8472 11.5578 27.808L11.2736 28.0368C11.6417 27.9905 11.2489 28.3333 11.6063 28.4329C11.3518 29.454 10.6358 29.4763 10.7772 30.5207C10.6683 30.3173 10.1315 30.5864 10.0933 30.8775C10.1198 31.0633 10.1833 31.1309 10.3522 31.0824L10.0437 31.3651C10.4239 31.999 9.89724 32.2904 9.88502 33.0071L10.0498 33.0261C9.79129 33.2036 9.56316 33.4141 9.50337 33.7944L9.83237 33.8291C9.90778 34.3378 9.07593 33.9554 9.11558 34.508C8.78383 34.4017 8.7126 34.0375 8.41323 33.888C8.71334 34.1125 8.59357 34.6555 8.39211 34.4581C8.09731 34.9084 8.29042 34.8018 8.35802 34.8681L8.06166 35.0954C7.96605 35.4466 8.46446 35.3362 8.69609 35.2669C8.22817 35.4779 8.40078 35.9137 8.3545 36.2967L8.5449 36.1901L8.47576 36.6906C8.12877 36.9335 7.98931 37.3731 8.01806 37.8176L8.53736 37.6525C8.69234 37.9978 8.34427 37.7591 8.2484 37.8144C7.90965 38.2099 8.18538 38.3844 8.37275 38.6838C7.73225 39.3013 8.78753 40.2986 7.97601 40.768L8.22468 40.9006C7.45864 41.6302 8.0912 42.7648 7.19192 43.3044C7.93599 44.5209 6.21635 43.8703 6.89546 44.9665ZM15.4772 96.9457C15.4954 96.9112 15.513 96.8734 15.5258 96.8363L15.5244 96.8336L15.4772 96.9457ZM14.5685 91.1709L14.4719 91.1459C14.489 91.3222 14.4735 91.4377 14.5685 91.1709ZM12.4141 87.5641C12.4794 88.1005 12.6001 87.8567 12.7297 87.8325C12.3977 87.4438 12.4056 87.1291 12.0763 86.8025C12.1892 86.8249 12.3053 86.7818 12.3836 86.7683C12.2869 86.6217 12.1186 86.5101 11.8829 86.5592C11.5692 86.9608 12.7492 87.64 12.4141 87.5641ZM20.673 6.91454C20.625 6.81791 20.5756 6.67534 20.4899 6.84751C20.5474 6.86715 20.6082 6.89017 20.673 6.91454ZM20.4224 6.82855C20.4433 6.83465 20.4642 6.83939 20.4872 6.84751C20.5282 6.63612 20.6407 6.25998 20.5028 6.07343L20.3462 6.21514C20.2903 6.41301 20.4364 6.64281 20.4224 6.82855ZM22.5644 5.34771C22.5291 5.23961 22.4642 5.07472 22.3589 5.15028C22.2419 5.04954 22.3295 4.77133 22.2393 4.43014C22.1281 4.71307 22.1143 5.04741 22.0929 5.39053C22.1435 5.23049 22.1888 5.32442 22.2617 5.22721C22.3097 5.3252 22.3206 5.47381 22.3235 5.61701C22.4011 5.53399 22.4807 5.44626 22.5644 5.34771ZM21.9922 6.10645C21.9922 6.12402 21.9909 6.14158 21.9909 6.15914C22.0064 6.15442 22.0227 6.15039 22.0375 6.14499C22.0321 6.09636 22.0185 6.07608 21.9922 6.10645ZM22.3743 5.86768L22.325 5.84937C22.325 5.87909 22.3264 5.90477 22.3285 5.92841C22.3426 5.90748 22.3615 5.89266 22.3743 5.86768ZM21.3349 6.82865L21.3451 6.87121C21.285 6.91507 21.2539 6.84885 21.2315 6.7563C21.1842 6.73464 21.1389 6.72176 21.0984 6.72037C21.0957 6.73388 21.0964 6.74673 21.0903 6.76091C20.9703 6.93914 20.8439 6.91536 20.7762 6.6978C20.8078 6.52962 20.85 6.07238 20.8012 5.87376C20.9066 5.95085 20.9831 6.2015 21.0467 6.32314C21.0839 6.30899 21.1217 6.29958 21.1595 6.29015C21.1676 6.25909 21.1757 6.23208 21.1837 6.18345L21.2055 6.27803C21.3729 6.24034 21.5431 6.22564 21.7066 6.20686L21.5396 6.0777L21.5875 6.00683C21.649 5.99269 21.7207 6.07514 21.7106 6.20685C21.793 6.19746 21.8761 6.19012 21.9524 6.17195C21.9503 6.03888 21.9414 5.92066 21.8975 5.9294C21.8995 5.92737 21.8982 5.91928 21.8995 5.91658C21.8643 5.85846 21.84 5.79087 21.8203 5.71858C21.8541 5.70375 21.8784 5.69836 21.9027 5.69432C21.8986 5.59705 21.8998 5.50521 21.9424 5.49916C21.9314 5.2722 21.7105 5.22809 21.5883 5.3516C21.5531 5.28672 21.5808 5.20638 21.5746 5.0625C21.7182 4.76608 21.8193 5.35045 21.9203 4.92499C21.9434 5.07767 21.9618 5.231 21.9754 5.38367C22.061 5.2169 22.1188 4.84814 22.0606 4.66706C22.0917 4.686 22.112 4.74953 22.1423 4.66917C22.2207 3.97823 21.9912 4.9149 21.9799 4.32858L22.0657 4.37798C22.139 3.9302 21.854 3.984 21.7317 4.01429C21.5901 4.22492 21.4598 4.30112 21.4506 4.6267L21.6419 4.76668C21.5428 5.02666 21.3986 4.61382 21.2871 4.62655C21.2804 4.67113 21.2689 4.70422 21.2561 4.72784C21.2615 4.69948 21.2655 4.66977 21.2648 4.63802C21.2419 4.65421 21.2203 4.69339 21.2028 4.77173C21.1049 4.78853 20.9622 4.58912 20.8718 4.69307L20.883 4.40331L20.8953 4.56679C20.9844 4.55606 21.1052 4.37715 21.0375 4.16094C20.836 3.95948 20.7959 4.51875 20.7482 4.77066C20.7952 5.21583 20.9441 4.76676 21.0469 4.91816C20.9858 5.35784 20.8429 4.96391 20.6345 5.25487C20.718 5.7379 20.8756 5.24765 20.9212 5.69282C20.7538 5.77509 20.7096 5.43258 20.5341 5.55537C20.5566 5.77897 20.7288 5.80005 20.7176 6.08712L20.6042 6.22483C20.8819 6.25276 20.5561 6.82462 20.773 6.94301C20.7703 6.94706 20.7697 6.9464 20.7676 6.94977C21.0034 7.03306 21.2561 7.09 21.4059 6.89829C21.3816 6.8672 21.3586 6.84962 21.3349 6.82865ZM23.4764 6.32996C23.4393 6.34411 23.4015 6.3603 23.3637 6.37513C23.3569 6.40485 23.3509 6.43388 23.3442 6.46359C23.3462 6.46291 23.3469 6.46224 23.3482 6.46089C23.4697 6.39615 23.3947 6.36839 23.4764 6.32996ZM23.3213 6.54326C23.3118 6.57838 23.3017 6.61417 23.2916 6.64862C23.3821 6.58655 23.4705 6.52112 23.54 6.45566C23.4232 6.51567 23.3658 6.53249 23.3213 6.54326ZM23.8817 19.7716L23.7791 19.7945C23.8135 19.7871 23.8493 19.7797 23.8817 19.7716ZM26.1774 17.8762L26.1085 17.8504C26.0288 17.9085 25.9546 17.9422 26.1774 17.8762ZM26.0457 16.342C25.8662 16.527 26.083 16.4684 26.21 16.482C26.0849 16.3002 26.2307 16.199 26.0806 16.0381C26.1725 16.0639 26.2954 16.0694 26.3711 16.0775C26.3487 16.0133 26.248 15.9491 26.015 15.9266C25.5544 16.0059 26.3119 16.422 26.0457 16.342Z" fill="#575369"/>
</svg>
