<svg width="26" height="30" viewBox="0 0 26 30" fill="none" xmlns="http://www.w3.org/2000/svg">
<g id="icons">
<path id="Vector" d="M24.9843 19.1769C25.5453 19.1769 26 18.733 26 18.1853V11.0674C26 8.90054 24.1942 7.13772 21.9747 7.13772H18.0219V5.81032C18.0219 4.20738 16.686 2.90323 15.0441 2.90323H10.9557C9.31382 2.90323 7.97797 4.20733 7.97797 5.81032V7.13772H4.02522C1.80573 7.13772 0 8.90054 0 11.0674V23.1671C0 25.334 1.80573 27.0968 4.02522 27.0968H21.9748C24.1943 27.0968 26 25.334 26 23.1671V23.1429C26 22.5953 25.5453 22.1514 24.9844 22.1514C24.4235 22.1514 23.9688 22.5953 23.9688 23.1429V23.1671C23.9688 24.2405 23.0743 25.1137 21.9748 25.1137H4.02522C2.92571 25.1137 2.03125 24.2405 2.03125 23.1671V11.0674C2.03125 9.99399 2.92571 9.12076 4.02522 9.12076H21.9748C23.0742 9.12076 23.9688 9.99399 23.9688 11.0674V18.1853C23.9687 18.733 24.4234 19.1769 24.9843 19.1769ZM10.0093 7.13772V5.81032C10.0093 5.30082 10.4339 4.88627 10.9558 4.88627H15.0442C15.566 4.88627 15.9907 5.30078 15.9907 5.81032V7.13772H10.0093ZM12.4289 22.5614H13.571C14.949 22.5614 16.0701 21.4669 16.0701 20.1217V20.1179H16.074C17.452 20.1179 18.573 19.0234 18.573 17.6781V16.5632C18.573 15.2179 17.452 14.1234 16.074 14.1234H16.0701V14.1197C16.0701 12.7744 14.949 11.6799 13.571 11.6799H12.4289C11.0509 11.6799 9.9299 12.7744 9.9299 14.1197V14.1234H9.92599C8.54799 14.1234 7.42695 15.2179 7.42695 16.5632V17.6782C7.42695 19.0235 8.54799 20.1179 9.92599 20.1179H9.9299V20.1217C9.9299 21.467 11.0509 22.5614 12.4289 22.5614ZM9.92599 18.1348C9.66807 18.1348 9.45819 17.93 9.45819 17.6781V16.5632C9.45819 16.3113 9.66807 16.1065 9.92599 16.1065H10.9455C11.5065 16.1065 11.9611 15.6626 11.9611 15.1149V14.1197C11.9611 13.8678 12.171 13.663 12.4289 13.663H13.571C13.8289 13.663 14.0388 13.8679 14.0388 14.1197V15.1149C14.0388 15.6626 14.4935 16.1065 15.0544 16.1065H16.074C16.3319 16.1065 16.5418 16.3114 16.5418 16.5632V17.6782C16.5418 17.93 16.3319 18.1349 16.074 18.1349H15.0544C14.4935 18.1349 14.0388 18.5788 14.0388 19.1264V20.1217C14.0388 20.3736 13.8289 20.5784 13.571 20.5784H12.4289C12.171 20.5784 11.9611 20.3735 11.9611 20.1217V19.1264C11.9611 18.5788 11.5065 18.1349 10.9455 18.1349H9.92599V18.1348Z" fill="#212121"/>
</g>
</svg>
