<svg width="60" height="60" viewBox="0 0 60 60" fill="none" xmlns="http://www.w3.org/2000/svg">
<g id="5340292_locate_location_map_pin_icon 1">
<g id="Ellipse 13" filter="url(#filter0_d_108_1370)">
<circle cx="30" cy="30" r="25" fill="white"/>
</g>
<g id="locate location map pin">
<path id="Vector" d="M37.5229 19.5344C35.395 17.3421 32.509 16.1104 29.4997 16.1104C26.4905 16.1104 23.6045 17.3421 21.4766 19.5344C19.3487 21.7268 18.1533 24.7002 18.1533 27.8007C18.1533 30.9011 19.3487 33.8746 21.4766 36.0669L25.7047 40.4232C25.8009 40.5222 25.915 40.6008 26.0407 40.6544C26.1663 40.708 26.3009 40.7356 26.4369 40.7356C26.5729 40.7356 26.7075 40.708 26.8332 40.6544C26.9588 40.6008 27.073 40.5222 27.1691 40.4232C27.2653 40.3241 27.3415 40.2065 27.3936 40.077C27.4456 39.9476 27.4724 39.8089 27.4724 39.6688C27.4724 39.5287 27.4456 39.3899 27.3936 39.2605C27.3415 39.1311 27.2653 39.0135 27.1691 38.9144L22.941 34.5582C21.6418 33.2213 20.7567 31.5174 20.3977 29.6622C20.0386 27.8069 20.2217 25.8836 20.9239 24.1356C21.626 22.3876 22.8156 20.8934 24.3421 19.8421C25.8687 18.7909 27.6636 18.2297 29.4997 18.2297C31.3359 18.2297 33.1308 18.7909 34.6573 19.8421C36.1839 20.8934 37.3735 22.3876 38.0756 24.1356C38.7777 25.8836 38.9609 27.8069 38.6018 29.6622C38.2427 31.5174 37.3576 33.2213 36.0585 34.5582L28.7675 42.07C28.6709 42.1688 28.5942 42.2863 28.5418 42.4158C28.4895 42.5453 28.4625 42.6841 28.4625 42.8244C28.4625 42.9647 28.4895 43.1035 28.5418 43.233C28.5942 43.3625 28.6709 43.48 28.7675 43.5788C28.8634 43.6784 28.9775 43.7574 29.1031 43.8113C29.2288 43.8653 29.3636 43.8931 29.4997 43.8931C29.6359 43.8931 29.7707 43.8653 29.8963 43.8113C30.022 43.7574 30.1361 43.6784 30.2319 43.5788L37.5229 36.0669C38.5768 34.9815 39.4128 33.6929 39.9833 32.2745C40.5537 30.8562 40.8473 29.3359 40.8473 27.8007C40.8473 26.2654 40.5537 24.7451 39.9833 23.3268C39.4128 21.9084 38.5768 20.6198 37.5229 19.5344Z" fill="#0F8D9F"/>
<path id="Vector_2" d="M34.6563 27.875C34.6563 26.8243 34.3538 25.7972 33.7873 24.9235C33.2207 24.0499 32.4154 23.369 31.4732 22.9669C30.531 22.5648 29.4943 22.4596 28.4941 22.6646C27.4939 22.8696 26.5751 23.3755 25.854 24.1185C25.1329 24.8615 24.6418 25.8081 24.4428 26.8386C24.2439 27.8691 24.346 28.9373 24.7362 29.908C25.1265 30.8787 25.7874 31.7084 26.6353 32.2922C27.4833 32.8759 28.4802 33.1875 29.5 33.1875C30.8675 33.1875 32.179 32.6278 33.146 31.6315C34.113 30.6352 34.6563 29.284 34.6563 27.875ZM26.4063 27.875C26.4063 27.2446 26.5877 26.6283 26.9276 26.1041C27.2676 25.5799 27.7508 25.1714 28.3161 24.9301C28.8814 24.6889 29.5034 24.6258 30.1036 24.7487C30.7037 24.8717 31.2549 25.1753 31.6876 25.6211C32.1203 26.0669 32.4149 26.6348 32.5343 27.2532C32.6537 27.8715 32.5924 28.5124 32.3583 29.0948C32.1241 29.6772 31.7276 30.1751 31.2188 30.5253C30.71 30.8756 30.1119 31.0625 29.5 31.0625C28.6795 31.0625 27.8926 30.7267 27.3124 30.1289C26.7322 29.5311 26.4063 28.7204 26.4063 27.875Z" fill="#0F8D9F"/>
</g>
</g>
<defs>
<filter id="filter0_d_108_1370" x="0" y="0" width="60" height="60" filterUnits="userSpaceOnUse" color-interpolation-filters="sRGB">
<feFlood flood-opacity="0" result="BackgroundImageFix"/>
<feColorMatrix in="SourceAlpha" type="matrix" values="0 0 0 0 0 0 0 0 0 0 0 0 0 0 0 0 0 0 127 0" result="hardAlpha"/>
<feOffset/>
<feGaussianBlur stdDeviation="2.5"/>
<feComposite in2="hardAlpha" operator="out"/>
<feColorMatrix type="matrix" values="0 0 0 0 0 0 0 0 0 0 0 0 0 0 0 0 0 0 0.07 0"/>
<feBlend mode="normal" in2="BackgroundImageFix" result="effect1_dropShadow_108_1370"/>
<feBlend mode="normal" in="SourceGraphic" in2="effect1_dropShadow_108_1370" result="shape"/>
</filter>
</defs>
</svg>
