<svg width="60" height="60" viewBox="0 0 60 60" fill="none" xmlns="http://www.w3.org/2000/svg">
<g filter="url(#filter0_d_108_1366)">
<circle cx="30" cy="30" r="25" fill="white"/>
</g>
<path d="M42.75 26.625C42.4682 26.625 42.198 26.7435 41.9987 26.9545C41.7994 27.1655 41.6875 27.4516 41.6875 27.75V36.75C41.6875 37.0484 41.5756 37.3345 41.3763 37.5455C41.177 37.7565 40.9068 37.875 40.625 37.875H19.375C19.0932 37.875 18.823 37.7565 18.6237 37.5455C18.4244 37.3345 18.3125 37.0484 18.3125 36.75V27.75C18.3125 27.4516 18.2006 27.1655 18.0013 26.9545C17.802 26.7435 17.5318 26.625 17.25 26.625C16.9682 26.625 16.698 26.7435 16.4987 26.9545C16.2994 27.1655 16.1875 27.4516 16.1875 27.75V36.75C16.1882 37.6448 16.5246 38.5027 17.1225 39.135C17.7197 39.7681 18.5299 40.1242 19.375 40.125H40.625C41.4701 40.1242 42.2803 39.7681 42.8775 39.135C43.4754 38.5027 43.8118 37.6448 43.8125 36.75V27.75C43.8125 27.4516 43.7006 27.1655 43.5013 26.9545C43.302 26.7435 43.0318 26.625 42.75 26.625Z" fill="#0F8D9F"/>
<path d="M29.3625 33.15C29.5464 33.296 29.7701 33.375 30 33.375C30.2299 33.375 30.4536 33.296 30.6375 33.15L43.1856 23.1825C43.3814 23.0262 43.5201 22.803 43.5782 22.5508C43.6363 22.2986 43.6102 22.0329 43.5044 21.7988C43.3462 21.4526 43.1343 21.137 42.8775 20.865C42.2803 20.2319 41.4701 19.8758 40.625 19.875H19.375C18.5299 19.8758 17.7197 20.2319 17.1225 20.865C16.8658 21.137 16.6539 21.4526 16.4956 21.7988C16.3898 22.0329 16.3638 22.2986 16.4219 22.5508C16.48 22.803 16.6186 23.0262 16.8144 23.1825L29.3625 33.15ZM19.375 22.125H40.625C40.7236 22.1086 40.824 22.1086 40.9225 22.125L30 30.8438L19.0775 22.125C19.1761 22.1086 19.2765 22.1086 19.375 22.125Z" fill="#0F8D9F"/>
<defs>
<filter id="filter0_d_108_1366" x="0" y="0" width="60" height="60" filterUnits="userSpaceOnUse" color-interpolation-filters="sRGB">
<feFlood flood-opacity="0" result="BackgroundImageFix"/>
<feColorMatrix in="SourceAlpha" type="matrix" values="0 0 0 0 0 0 0 0 0 0 0 0 0 0 0 0 0 0 127 0" result="hardAlpha"/>
<feOffset/>
<feGaussianBlur stdDeviation="2.5"/>
<feComposite in2="hardAlpha" operator="out"/>
<feColorMatrix type="matrix" values="0 0 0 0 0 0 0 0 0 0 0 0 0 0 0 0 0 0 0.07 0"/>
<feBlend mode="normal" in2="BackgroundImageFix" result="effect1_dropShadow_108_1366"/>
<feBlend mode="normal" in="SourceGraphic" in2="effect1_dropShadow_108_1366" result="shape"/>
</filter>
</defs>
</svg>
