<svg width="60" height="60" viewBox="0 0 60 60" fill="none" xmlns="http://www.w3.org/2000/svg">
<g filter="url(#filter0_d_108_1374)">
<circle cx="30" cy="30" r="25" fill="white"/>
</g>
<path d="M35.125 43C36.3185 43 37.4631 42.5083 38.307 41.6332C39.1509 40.758 39.625 39.571 39.625 38.3333V19.6667C39.625 18.429 39.1509 17.242 38.307 16.3668C37.4631 15.4917 36.3185 15 35.125 15H23.875C22.6815 15 21.5369 15.4917 20.693 16.3668C19.8491 17.242 19.375 18.429 19.375 19.6667V38.3333C19.375 39.571 19.8491 40.758 20.693 41.6332C21.5369 42.5083 22.6815 43 23.875 43H35.125ZM21.625 38.3333V19.6667C21.625 19.0478 21.8621 18.4543 22.284 18.0168C22.706 17.5792 23.2783 17.3333 23.875 17.3333H35.125C35.7217 17.3333 36.294 17.5792 36.716 18.0168C37.1379 18.4543 37.375 19.0478 37.375 19.6667V38.3333C37.375 38.9522 37.1379 39.5457 36.716 39.9832C36.294 40.4208 35.7217 40.6667 35.125 40.6667H23.875C23.2783 40.6667 22.706 40.4208 22.284 39.9832C21.8621 39.5457 21.625 38.9522 21.625 38.3333Z" fill="#0F8D9F"/>
<path d="M25 37.1666H34C34.2984 37.1666 34.5845 37.0437 34.7955 36.8249C35.0065 36.6061 35.125 36.3094 35.125 36C35.125 35.6906 35.0065 35.3938 34.7955 35.175C34.5845 34.9562 34.2984 34.8333 34 34.8333H25C24.7016 34.8333 24.4155 34.9562 24.2045 35.175C23.9935 35.3938 23.875 35.6906 23.875 36C23.875 36.3094 23.9935 36.6061 24.2045 36.8249C24.4155 37.0437 24.7016 37.1666 25 37.1666Z" fill="#0F8D9F"/>
<path d="M28.375 20.8333H30.625C30.9234 20.8333 31.2095 20.7104 31.4205 20.4916C31.6315 20.2728 31.75 19.9761 31.75 19.6667C31.75 19.3572 31.6315 19.0605 31.4205 18.8417C31.2095 18.6229 30.9234 18.5 30.625 18.5H28.375C28.0766 18.5 27.7905 18.6229 27.5795 18.8417C27.3685 19.0605 27.25 19.3572 27.25 19.6667C27.25 19.9761 27.3685 20.2728 27.5795 20.4916C27.7905 20.7104 28.0766 20.8333 28.375 20.8333Z" fill="#0F8D9F"/>
<defs>
<filter id="filter0_d_108_1374" x="0" y="0" width="60" height="60" filterUnits="userSpaceOnUse" color-interpolation-filters="sRGB">
<feFlood flood-opacity="0" result="BackgroundImageFix"/>
<feColorMatrix in="SourceAlpha" type="matrix" values="0 0 0 0 0 0 0 0 0 0 0 0 0 0 0 0 0 0 127 0" result="hardAlpha"/>
<feOffset/>
<feGaussianBlur stdDeviation="2.5"/>
<feComposite in2="hardAlpha" operator="out"/>
<feColorMatrix type="matrix" values="0 0 0 0 0 0 0 0 0 0 0 0 0 0 0 0 0 0 0.07 0"/>
<feBlend mode="normal" in2="BackgroundImageFix" result="effect1_dropShadow_108_1374"/>
<feBlend mode="normal" in="SourceGraphic" in2="effect1_dropShadow_108_1374" result="shape"/>
</filter>
</defs>
</svg>
