<svg width="60" height="60" viewBox="0 0 60 60" fill="none" xmlns="http://www.w3.org/2000/svg">
<path d="M24.0863 26.1953C23.967 26.0702 23.8051 26 23.6364 26C23.4676 26 23.3057 26.0702 23.1864 26.1953C23.067 26.3203 23 26.4899 23 26.6667C23 26.8435 23.067 27.013 23.1864 27.1381L29.55 33.8047C29.7985 34.0651 30.2015 34.0651 30.45 33.8047L36.8136 27.1381C36.933 27.013 37 26.8435 37 26.6667C37 26.4899 36.933 26.3203 36.8136 26.1953C36.6943 26.0702 36.5324 26 36.3636 26C36.1949 26 36.033 26.0702 35.9137 26.1953L30 32.3905L24.0863 26.1953Z" fill="#797C80"/>
</svg>
