<svg width="26" height="30" viewBox="0 0 26 30" fill="none" xmlns="http://www.w3.org/2000/svg">
<path d="M25.5611 11.5868L13.4897 3.54654C13.3342 3.4428 13.1496 3.38721 12.9604 3.38721C12.7712 3.38721 12.5865 3.4428 12.4311 3.54654L0.35967 11.5868C0.171633 11.727 0.0467195 11.9313 0.0107039 12.1576C-0.0253116 12.3838 0.0303186 12.6148 0.166116 12.8027C0.301914 12.9907 0.507518 13.1213 0.740506 13.1677C0.973495 13.214 1.21609 13.1726 1.41824 13.0519L2.7461 12.1585V24.0133C2.74488 24.3543 2.81363 24.6922 2.94841 25.0075C3.08319 25.3229 3.28135 25.6095 3.53153 25.851C3.7817 26.0926 4.07898 26.2842 4.40629 26.415C4.73361 26.5457 5.08454 26.613 5.43896 26.613H20.4818C20.8362 26.613 21.1872 26.5457 21.5145 26.415C21.8418 26.2842 22.1391 26.0926 22.3892 25.851C22.6394 25.6095 22.8376 25.3229 22.9724 25.0075C23.1071 24.6922 23.1759 24.3543 23.1747 24.0133V14.9994C23.1747 14.7624 23.0768 14.5352 22.9027 14.3677C22.7286 14.2001 22.4924 14.106 22.2461 14.106C21.9998 14.106 21.7636 14.2001 21.5895 14.3677C21.4154 14.5352 21.3175 14.7624 21.3175 14.9994V24.0133C21.3188 24.1197 21.298 24.2252 21.2566 24.3238C21.2151 24.4224 21.1538 24.512 21.0761 24.5877C20.9983 24.6633 20.9058 24.7233 20.8038 24.7643C20.7018 24.8052 20.5923 24.8263 20.4818 24.8263H5.43896C5.32842 24.8263 5.21899 24.8052 5.11698 24.7643C5.01498 24.7233 4.92243 24.6633 4.84471 24.5877C4.76698 24.512 4.70562 24.4224 4.66417 24.3238C4.62272 24.2252 4.60201 24.1197 4.60324 24.0133V10.9346L12.9604 5.36899L24.5025 13.0519C24.6021 13.1261 24.7164 13.1801 24.8383 13.2106C24.9603 13.241 25.0874 13.2472 25.212 13.2289C25.3365 13.2105 25.4559 13.168 25.5628 13.1038C25.6697 13.0397 25.762 12.9552 25.8339 12.8557C25.9058 12.7562 25.9559 12.6436 25.9812 12.5248C26.0064 12.406 26.0063 12.2836 25.9808 12.1649C25.9552 12.0462 25.9049 11.9337 25.8327 11.8343C25.7606 11.7349 25.6682 11.6507 25.5611 11.5868Z" fill="#212121"/>
<path d="M14.3757 19.5285C13.9295 19.8213 13.4572 20.0754 12.9643 20.2879C12.4714 20.0754 11.9991 19.8213 11.5528 19.5285C11.2246 19.3104 10.9142 19.0685 10.6243 18.8049C10.442 18.645 10.2012 18.5613 9.95481 18.5721C9.7084 18.583 9.47658 18.6877 9.31035 18.863C9.14411 19.0383 9.05708 19.27 9.0684 19.5071C9.07972 19.7441 9.18846 19.9672 9.37071 20.1271C9.72299 20.4498 10.0984 20.7484 10.4943 21.0204C11.1578 21.4602 11.8712 21.8259 12.6207 22.1103C12.8413 22.1949 13.0872 22.1949 13.3078 22.1103C14.0555 21.822 14.7685 21.4566 15.4343 21.0204C16.9 20.0249 18.1023 18.7122 18.9443 17.1879C19.2985 16.5789 19.4799 15.8909 19.4701 15.193C19.4603 14.4952 19.2597 13.8121 18.8886 13.2125C18.5645 12.6724 18.0991 12.2233 17.5387 11.9099C16.9784 11.5964 16.3425 11.4295 15.6943 11.4258C15.1792 11.425 14.6698 11.5288 14.1994 11.7305C13.729 11.9322 13.3081 12.2271 12.9643 12.5961C12.6205 12.2271 12.1996 11.9322 11.7292 11.7305C11.2587 11.5288 10.7493 11.425 10.2343 11.4258C9.58608 11.4295 8.9502 11.5964 8.38982 11.9099C7.82944 12.2233 7.36408 12.6724 7.03999 13.2125C6.67565 13.8079 6.4789 14.4844 6.46913 15.1752C6.45936 15.8661 6.63691 16.5475 6.98428 17.1522C7.04525 17.2549 7.12664 17.3449 7.2238 17.4173C7.32096 17.4897 7.43199 17.543 7.55055 17.5741C7.66911 17.6052 7.79288 17.6136 7.91479 17.5986C8.0367 17.5837 8.15436 17.5459 8.26106 17.4872C8.36776 17.4286 8.46141 17.3502 8.53665 17.2568C8.6119 17.1633 8.66727 17.0565 8.6996 16.9424C8.73194 16.8283 8.7406 16.7093 8.7251 16.592C8.70961 16.4747 8.67025 16.3615 8.60928 16.2588C8.41303 15.9282 8.30982 15.5541 8.30982 15.1734C8.30982 14.7927 8.41303 14.4186 8.60928 14.088C8.77132 13.8179 9.004 13.5934 9.28419 13.4367C9.56438 13.28 9.88232 13.1965 10.2064 13.1946C10.572 13.1957 10.9292 13.3005 11.2331 13.4959C11.537 13.6914 11.7742 13.9688 11.915 14.2935L12.0914 14.6687C12.1653 14.8246 12.2842 14.9569 12.434 15.0496C12.5839 15.1423 12.7583 15.1916 12.9364 15.1916C13.1146 15.1916 13.289 15.1423 13.4388 15.0496C13.5886 14.9569 13.7076 14.8246 13.7814 14.6687L13.9578 14.2935C14.1033 13.9679 14.346 13.6914 14.6552 13.4989C14.9644 13.3064 15.3261 13.2067 15.6943 13.2125C16.0184 13.2144 16.3363 13.2978 16.6165 13.4546C16.8967 13.6113 17.1294 13.8358 17.2914 14.1059C17.4877 14.4365 17.5909 14.8106 17.5909 15.1913C17.5909 15.572 17.4877 15.9461 17.2914 16.2767C16.5929 17.5623 15.595 18.6751 14.3757 19.5285Z" fill="#212121"/>
</svg>
