<svg width="26" height="30" viewBox="0 0 26 30" fill="none" xmlns="http://www.w3.org/2000/svg">
<path d="M25.4929 20.3403C25.1837 19.926 24.7552 19.6089 24.2607 19.4288C23.7662 19.2487 23.2278 19.2136 22.7128 19.3278L16.8377 20.6808C16.4864 20.7526 16.1234 20.7526 15.772 20.6808L12.9364 20.1521C12.7928 20.1335 12.6604 20.0668 12.5622 19.9637C12.4641 19.8606 12.4063 19.7276 12.3989 19.5876C12.4037 19.5064 12.4249 19.4268 12.4615 19.3536C12.4981 19.2803 12.5493 19.2147 12.6121 19.1606C12.675 19.1065 12.7482 19.0649 12.8277 19.0382C12.9072 19.0116 12.9914 19.0003 13.0754 19.0052H13.9001C14.5146 19.0052 15.1038 18.7692 15.5383 18.3491C15.9728 17.929 16.2168 17.3592 16.2168 16.765C16.2168 16.1709 15.9728 15.6011 15.5383 15.181C15.1038 14.7609 14.5146 14.5249 13.9001 14.5249H11.2221C10.625 14.5252 10.0314 14.6128 9.46137 14.7848L5.49519 16.0303C5.42948 15.8602 5.31189 15.7134 5.15799 15.6094C5.00409 15.5054 4.82114 15.4491 4.63338 15.4478H0.926677C0.680907 15.4478 0.445203 15.5422 0.271417 15.7103C0.0976317 15.8783 0 16.1062 0 16.3439V19.0321C0 19.2697 0.0976317 19.4976 0.271417 19.6657C0.445203 19.8337 0.680907 19.9281 0.926677 19.9281C1.17245 19.9281 1.40815 19.8337 1.58194 19.6657C1.75572 19.4976 1.85335 19.2697 1.85335 19.0321V17.24H3.70671V25.3045H1.85335V22.6163C1.85335 22.3786 1.75572 22.1507 1.58194 21.9827C1.40815 21.8146 1.17245 21.7202 0.926677 21.7202C0.680907 21.7202 0.445203 21.8146 0.271417 21.9827C0.0976317 22.1507 0 22.3786 0 22.6163V26.2005C0 26.4382 0.0976317 26.6661 0.271417 26.8341C0.445203 27.0022 0.680907 27.0966 0.926677 27.0966H4.63338C4.86247 27.0979 5.08395 27.0172 5.25508 26.8699C5.42622 26.7226 5.53486 26.5193 5.56006 26.2991L10.8421 26.8367C11.316 26.8872 11.7925 26.9111 12.2692 26.9084C13.524 26.9063 14.7721 26.7313 15.9759 26.3887L18.7559 25.6002C18.8728 25.5672 18.9817 25.5123 19.0766 25.4387C19.1715 25.365 19.2505 25.274 19.309 25.1708C19.3675 25.0676 19.4044 24.9543 19.4176 24.8373C19.4309 24.7204 19.4201 24.602 19.3861 24.4891C19.352 24.3761 19.2952 24.2707 19.2191 24.179C19.1429 24.0872 19.0487 24.0109 18.942 23.9543C18.8353 23.8977 18.7182 23.862 18.5972 23.8492C18.4762 23.8364 18.3538 23.8468 18.237 23.8797L15.457 24.6683C14.0126 25.0826 12.4971 25.2136 10.9997 25.0536L5.56006 24.498V17.8941L10.0266 16.5231C10.4133 16.4048 10.8165 16.3443 11.2221 16.3439H13.9001C14.023 16.3439 14.1409 16.3911 14.2278 16.4751C14.3147 16.5591 14.3635 16.6731 14.3635 16.7919C14.3635 16.9108 14.3147 17.0247 14.2278 17.1087C14.1409 17.1928 14.023 17.24 13.9001 17.24H13.0754C12.4429 17.2 11.8191 17.399 11.3354 17.795C10.8516 18.191 10.5457 18.7531 10.482 19.3629C10.4184 19.9727 10.6019 20.5826 10.9941 21.0641C11.3862 21.5456 11.9563 21.8611 12.5843 21.9443L15.4199 22.464C16.0309 22.5895 16.6623 22.5895 17.2732 22.464L23.1484 21.102C23.3071 21.0645 23.4737 21.0735 23.6271 21.1277C23.7806 21.1819 23.9139 21.279 24.0102 21.4066C24.0699 21.4873 24.1087 21.5808 24.1232 21.679C24.1377 21.7773 24.1276 21.8775 24.0936 21.9711C24.0532 22.0805 23.9855 22.1786 23.8967 22.2567C23.8078 22.3349 23.7004 22.3906 23.5839 22.4192L22.0178 22.8582C21.7721 22.8915 21.55 23.0178 21.4006 23.2094C21.2511 23.401 21.1865 23.6421 21.2209 23.8797C21.2553 24.1174 21.3859 24.3321 21.584 24.4766C21.7822 24.6211 22.0315 24.6836 22.2773 24.6503C22.3633 24.6634 22.4508 24.6634 22.5368 24.6503L24.1121 24.2023C24.5085 24.0917 24.8721 23.892 25.1733 23.6195C25.4745 23.3469 25.7047 23.0093 25.845 22.6342C25.9905 22.2541 26.0345 21.8446 25.973 21.4436C25.9114 21.0427 25.7463 20.6632 25.4929 20.3403Z" fill="#212121"/>
<path d="M12.9744 9.4535C13.1711 9.33301 13.3137 9.14535 13.3738 8.92785C13.4339 8.71035 13.4071 8.47894 13.2988 8.27966C13.0729 7.89601 12.9541 7.46215 12.9541 7.0207C12.9541 6.57925 13.0729 6.14539 13.2988 5.76174C13.4724 5.43901 13.7346 5.16877 14.0567 4.98066C14.3787 4.79256 14.7481 4.69388 15.1243 4.69543C15.5335 4.70522 15.9311 4.82873 16.2696 5.05119C16.6081 5.27365 16.8732 5.58565 17.0333 5.94991L17.2279 6.3621C17.3016 6.51854 17.4203 6.65118 17.5698 6.74418C17.7193 6.83719 17.8933 6.88664 18.0711 6.88664C18.2489 6.88664 18.423 6.83719 18.5725 6.74418C18.722 6.65118 18.8407 6.51854 18.9144 6.3621L19.109 5.94991C19.269 5.58565 19.5342 5.27365 19.8727 5.05119C20.2112 4.82873 20.6088 4.70522 21.018 4.69543C21.3825 4.6985 21.7397 4.79563 22.0525 4.97678C22.3652 5.15794 22.6223 5.41654 22.7972 5.7259C23.023 6.10955 23.1418 6.54341 23.1418 6.98486C23.1418 7.42631 23.023 7.86017 22.7972 8.24382C22.0281 9.66136 20.9308 10.888 19.5909 11.828C19.098 12.172 18.5738 12.4719 18.0248 12.7241C17.4758 12.4719 16.9516 12.172 16.4587 11.828C16.1092 11.5625 15.7779 11.2752 15.4672 10.9678C15.3783 10.8866 15.2738 10.8232 15.1596 10.781C15.0454 10.7389 14.9237 10.7189 14.8016 10.7222C14.6794 10.7256 14.559 10.7521 14.4475 10.8004C14.3359 10.8487 14.2353 10.9178 14.1513 11.0037C14.0673 11.0896 14.0017 11.1906 13.9581 11.3011C13.9145 11.4115 13.8939 11.5291 13.8973 11.6473C13.9043 11.8859 14.0089 12.1121 14.1884 12.2761C14.5876 12.6288 15.0084 12.958 15.4486 13.2617C16.1597 13.7408 16.9244 14.1406 17.7283 14.4535C17.9484 14.5383 18.1938 14.5383 18.414 14.4535C19.2199 14.1387 19.9875 13.739 20.7029 13.2617C22.28 12.1626 23.5712 10.7239 24.4745 9.05923C24.8444 8.39914 25.0311 7.65765 25.0165 6.90703C25.0019 6.1564 24.7864 5.42224 24.3911 4.77608C24.046 4.2071 23.5533 3.73506 22.9617 3.40661C22.3701 3.07816 21.7001 2.90468 21.018 2.90332C20.4567 2.90475 19.9026 3.02408 19.3937 3.25306C18.8849 3.48205 18.4336 3.81521 18.0711 4.22948C17.7086 3.81521 17.2573 3.48205 16.7485 3.25306C16.2397 3.02408 15.6855 2.90475 15.1243 2.90332C14.4385 2.90833 13.7661 3.08723 13.1742 3.42214C12.5823 3.75706 12.0916 4.23627 11.7512 4.81192C11.3559 5.45808 11.1404 6.19224 11.1258 6.94287C11.1112 7.6935 11.2979 8.43498 11.6678 9.09507C11.7258 9.20486 11.8065 9.30191 11.905 9.38015C12.0035 9.45839 12.1176 9.51613 12.2403 9.54977C12.3629 9.58341 12.4914 9.59223 12.6177 9.57566C12.7441 9.55909 12.8655 9.51751 12.9744 9.4535Z" fill="#212121"/>
</svg>
