<svg width="26" height="30" viewBox="0 0 26 30" fill="none" xmlns="http://www.w3.org/2000/svg">
<path d="M24.1694 22.4903C23.907 22.4689 23.6427 22.4974 23.3923 22.574C23.1419 22.6506 22.9105 22.7738 22.712 22.9362L20.2022 17.0445C20.7208 17.0208 21.2088 16.8078 21.5621 16.451C21.9153 16.0942 22.1057 15.6221 22.0925 15.1354C22.0793 14.6487 21.8636 14.1862 21.4915 13.8468C21.1194 13.5073 20.6204 13.3178 20.1012 13.3188H7.64407C7.61261 13.3181 7.58227 13.3078 7.55771 13.2893C7.53316 13.2709 7.51576 13.2454 7.50821 13.2167L5.00892 1.50552C4.95831 1.26482 4.8576 1.03584 4.71255 0.831674C4.56749 0.627506 4.38093 0.452153 4.16354 0.315645C3.94615 0.179137 3.70219 0.0841518 3.44562 0.0361216C3.18905 -0.0119087 2.9249 -0.0120414 2.66827 0.0357307C2.41164 0.0835028 2.16758 0.178243 1.95003 0.314532C1.73249 0.450821 1.54573 0.625986 1.40044 0.830009C1.25515 1.03403 1.15417 1.26291 1.1033 1.50355C1.05242 1.74419 1.05263 1.99188 1.10392 2.23245L3.60346 13.9447C3.73316 14.5454 4.01292 15.1087 4.41979 15.5883C4.82665 16.0679 5.34902 16.4503 5.94402 16.7039L4.57344 19.9177C4.52061 20.049 4.5248 20.1945 4.58514 20.3229C4.64547 20.4513 4.75712 20.5524 4.89609 20.6045C5.03507 20.6565 5.19029 20.6554 5.32838 20.6013C5.46648 20.5472 5.57645 20.4445 5.63464 20.3152L7.04261 17.0136C7.43386 17.0688 8.44771 17.0549 8.85982 17.0541L5.69567 24.4683C5.18842 24.2117 4.69823 23.9265 4.2278 23.6143L4.67582 22.5641C4.72868 22.4328 4.72449 22.2873 4.66416 22.1588C4.60383 22.0304 4.49218 21.9293 4.35319 21.8772C4.21421 21.8251 4.05898 21.8263 3.92088 21.8804C3.78277 21.9344 3.67281 22.0372 3.61462 22.1665L3.2862 22.9365C3.08732 22.7765 2.85667 22.6549 2.60752 22.5786C2.35836 22.5024 2.0956 22.473 1.83431 22.4923C1.57303 22.5115 1.31837 22.579 1.08496 22.6907C0.851549 22.8025 0.643983 22.9564 0.474178 23.1436C0.304374 23.3308 0.175675 23.5476 0.0954724 23.7816C0.0152694 24.0155 -0.0148582 24.262 0.00681872 24.5069C0.0284956 24.7519 0.10155 24.9903 0.221788 25.2087C0.342026 25.4271 0.50708 25.621 0.707472 25.7794C1.56996 26.4628 2.49973 27.0678 3.48424 27.5862C6.46414 29.2157 9.86275 30.0497 13.3119 29.9977C16.7611 29.9457 20.1294 29.0098 23.0519 27.2914C23.8378 26.8399 24.5867 26.3341 25.2923 25.7781C25.4927 25.6214 25.6579 25.4289 25.7782 25.2117C25.8985 24.9946 25.9715 24.7572 25.9931 24.5133C26.0372 24.0184 25.8698 23.5272 25.5279 23.1478C25.1859 22.7685 24.6973 22.532 24.1694 22.4903ZM21.7243 23.6455C21.2677 23.9452 20.793 24.2199 20.3026 24.4682L17.1385 17.0541H18.9758C18.9313 17.0856 21.8984 23.6528 21.7243 23.6455ZM10.0904 17.0541H12.2691C12.4206 17.0541 12.566 16.9977 12.6731 16.8972C12.7802 16.7967 12.8404 16.6605 12.8404 16.5184C12.8404 16.3763 12.7802 16.2401 12.6731 16.1396C12.566 16.0391 12.4206 15.9827 12.2691 15.9827H7.64407C6.95648 15.9786 6.29125 15.7532 5.75971 15.3443C5.22816 14.9353 4.86256 14.3675 4.72408 13.736L2.22394 2.0203C2.18454 1.81495 2.23278 1.6033 2.35827 1.431C2.48376 1.25869 2.67644 1.13953 2.89477 1.09921C3.11309 1.05889 3.33957 1.10064 3.52537 1.21545C3.71117 1.33027 3.84141 1.50895 3.888 1.71298L6.38729 13.4247C6.4453 13.6971 6.60226 13.9422 6.83143 14.1183C7.0606 14.2944 7.3478 14.3904 7.64407 14.3902H20.1012C20.3242 14.3933 20.537 14.4786 20.6935 14.6276C20.8501 14.7766 20.9378 14.9773 20.9378 15.1865C20.9378 15.3956 20.8501 15.5964 20.6935 15.7453C20.537 15.8943 20.3242 15.9796 20.1012 15.9827H15.2856C15.1341 15.9827 14.9888 16.0391 14.8816 16.1396C14.7745 16.2401 14.7143 16.3763 14.7143 16.5184C14.7143 16.6605 14.7745 16.7967 14.8816 16.8972C14.9888 16.9977 15.1341 17.0541 15.2856 17.0541H15.908L19.2783 24.9521C17.3126 25.814 15.1691 26.2607 12.9991 26.2606C10.8291 26.2605 8.6856 25.8136 6.72002 24.9514L10.0904 17.0541ZM24.5536 24.9607C23.7593 25.5842 22.9078 26.1406 22.0091 26.6235C15.6626 30.2279 7.03999 29.4673 1.44341 24.9594C1.31755 24.8567 1.22654 24.7217 1.18162 24.571C1.1367 24.4203 1.13984 24.2606 1.19064 24.1115C1.24145 23.9625 1.33769 23.8307 1.4675 23.7324C1.5973 23.6341 1.75497 23.5736 1.92104 23.5583C2.60382 23.549 3.03051 24.2328 3.65046 24.5446C6.04939 26.1281 8.86135 27.0719 11.787 27.2756C14.7126 27.4792 17.6424 26.9352 20.2644 25.7014C21.1584 25.2838 22.0105 24.7917 22.8105 24.2311C23.2804 23.9507 23.5194 23.5233 24.0776 23.5583C24.1891 23.5669 24.2977 23.5961 24.3972 23.6441C24.4966 23.6922 24.585 23.7581 24.6572 23.8383C24.7294 23.9184 24.784 24.0111 24.8179 24.111C24.8519 24.211 24.8644 24.3162 24.8548 24.4208C24.8457 24.5251 24.8143 24.6266 24.7625 24.7193C24.7108 24.8121 24.6397 24.8941 24.5536 24.9607Z" fill="#212121"/>
</svg>
